<svg xmlns="http://www.w3.org/2000/svg" version="1.0" height="52.000000pt"
	viewBox="80 0 512.000000 512.000000" preserveAspectRatio="xMidYMid meet">
	<g transform="translate(0.000000,512.000000) scale(0.100000,-0.100000)" fill="white"
		stroke="none">
		<path
			d="M1910 3784 c-30 -55 -138 -264 -240 -466 l-186 -367 -199 400 c-110 220 -204 403 -208 406 -6 3 -240 -108 -256 -123 -2 -1 87 -180 198 -398 111 -217 201 -397 201 -400 0 -3 -85 -6 -190 -6 l-190 0 0 -200 0 -200 190 0 190 0 -200 -400 c-110 -220 -200 -402 -200 -405 0 -3 58 -34 128 -69 l128 -64 204 409 205 409 38 -78 c122 -244 373 -726 385 -738 7 -8 11 -14 8 -14 -4 0 5 -23 20 -52 l26 -51 21 34 c12 19 24 36 28 39 3 3 116 224 250 492 l244 488 55 0 55 0 244 -488 c134 -268 247 -489 250 -492 4 -3 16 -20 28 -39 l21 -34 26 51 c15 29 24 52 20 52 -3 0 1 6 8 14 12 12 263 494 385 738 l38 78 205 -409 204 -409 128 64 c70 35 128 66 128 69 0 3 -90 185 -200 405 l-200 400 205 0 205 0 0 200 0 200 -205 0 c-113 0 -205 3 -205 6 0 3 90 183 201 400 111 218 200 397 198 398 -16 15 -250 126 -256 123 -4 -3 -98 -186 -208 -406 l-199 -400 -186 367 c-102 202 -210 411 -240 466 l-53 99 -20 -39 c-11 -22 -23 -41 -27 -44 -3 -3 -116 -222 -251 -487 l-244 -483 -55 0 -55 0 -244 483 c-135 265 -248 484 -251 487 -4 3 -16 22 -27 44 l-20 39 -53 -99z m155 -741 c55 -109 101 -201 103 -205 2 -5 -91 -8 -207 -8 l-211 0 102 205 c57 113 105 205 108 205 3 0 50 -89 105 -197z m1203 -8 l102 -205 -211 0 c-116 0 -209 3 -207 8 35 74 204 402 208 402 3 0 51 -92 108 -205z m-1098 -611 c0 -12 -202 -404 -208 -404 -6 0 -199 369 -210 401 -2 5 82 9 207 9 116 0 211 -3 211 -6z m1198 -3 c-11 -32 -204 -401 -210 -401 -6 0 -208 392 -208 404 0 3 95 6 211 6 125 0 209 -4 207 -9z" />
	</g>
</svg>