<svg viewBox="0 0 64 64" fill="none" xmlns="http://www.w3.org/2000/svg">
<path d="M10.2615 59.1412H47.0919V53.8079H10.2615V16.4745H5V53.8079C5 56.7412 7.36767 59.1412 10.2615 59.1412ZM57.6149 43.1412V11.1412C57.6149 8.20786 55.2472 5.80786 52.3534 5.80786L20.7845 5.80786C17.8906 5.80786 15.523 8.20786 15.523 11.1412V43.1412C15.523 46.0745 17.8906 48.4745 20.7845 48.4745H52.3534C55.2472 48.4745 57.6149 46.0745 57.6149 43.1412ZM39.1997 11.1412L44.4612 11.1412V24.4745L41.8304 22.4745L39.1997 24.4745V11.1412ZM20.7845 11.1412L33.9382 11.1412V35.1412L41.8304 29.1412L49.7226 35.1412V11.1412H52.3534V43.1412H20.7845V11.1412Z" fill="white"/>
</svg>
