<svg xmlns="http://www.w3.org/2000/svg" version="1.0" height="69.333" viewBox="80 0 354 256"><path d="M191 11.6c-3 5.5-13.8 26.4-24 46.6l-18.6 36.7-19.9-40c-11-22-20.4-40.3-20.8-40.6-.6-.3-24 10.8-25.6 12.3-.2.1 8.7 18 19.8 39.8 11.1 21.7 20.1 39.7 20.1 40s-8.5.6-19 .6H84v40h38l-20 40c-11 22-20 40.2-20 40.5s5.8 3.4 12.8 6.9l12.8 6.4 20.4-40.9 20.5-40.9 3.8 7.8c12.2 24.4 37.3 72.6 38.5 73.8.7.8 1.1 1.4.8 1.4-.4 0 .5 2.3 2 5.2l2.6 5.1 2.1-3.4c1.2-1.9 2.4-3.6 2.8-3.9.3-.3 11.6-22.4 25-49.2l24.4-48.8h11l24.4 48.8c13.4 26.8 24.7 48.9 25 49.2.4.3 1.6 2 2.8 3.9l2.1 3.4 2.6-5.1c1.5-2.9 2.4-5.2 2-5.2-.3 0 .1-.6.8-1.4 1.2-1.2 26.3-49.4 38.5-73.8l3.8-7.8 20.5 40.9 20.4 40.9 12.8-6.4c7-3.5 12.8-6.6 12.8-6.9s-9-18.5-20-40.5l-20-40h41v-40h-20.5c-11.3 0-20.5-.3-20.5-.6s9-18.3 20.1-40c11.1-21.8 20-39.7 19.8-39.8-1.6-1.5-25-12.6-25.6-12.3-.4.3-9.8 18.6-20.8 40.6l-19.9 40L345 58.2c-10.2-20.2-21-41.1-24-46.6l-5.3-9.9-2 3.9c-1.1 2.2-2.3 4.1-2.7 4.4-.3.3-11.6 22.2-25.1 48.7L261.5 107h-11l-24.4-48.3C212.6 32.2 201.3 10.3 201 10c-.4-.3-1.6-2.2-2.7-4.4l-2-3.9zm15.5 74.1c5.5 10.9 10.1 20.1 10.3 20.5.2.5-9.1.8-20.7.8H175l10.2-20.5C190.9 75.2 195.7 66 196 66s5 8.9 10.5 19.7m120.3.8L337 107h-21.1c-11.6 0-20.9-.3-20.7-.8C298.7 98.8 315.6 66 316 66c.3 0 5.1 9.2 10.8 20.5M217 147.6c0 1.2-20.2 40.4-20.8 40.4s-19.9-36.9-21-40.1c-.2-.5 8.2-.9 20.7-.9 11.6 0 21.1.3 21.1.6m119.8.3c-1.1 3.2-20.4 40.1-21 40.1S295 148.8 295 147.6c0-.3 9.5-.6 21.1-.6 12.5 0 20.9.4 20.7.9" fill="#fff"/></svg>