<svg viewBox="0 0 64 64" fill="none" xmlns="http://www.w3.org/2000/svg">
<path d="M49.3335 29.3333C49.7868 29.3333 50.2402 29.36 50.6668 29.4133V18.32C50.6668 15.5733 48.4268 13.3333 45.6802 13.3333H10.3202C7.5735 13.3333 5.3335 15.5733 5.3335 18.32L5.3335 45.68C5.3335 48.4266 7.5735 50.6666 10.3202 50.6666H36.2668C35.2535 48.6666 34.6668 46.4 34.6668 44C34.6668 35.8933 41.2268 29.3333 49.3335 29.3333ZM27.7335 34.6666L10.6668 24.5066V18.6666H11.2802L27.7602 28.48L44.6402 18.6666H45.3335V24.4266L27.7335 34.6666Z" fill="white"/>
<path d="M50.6662 34.6667L46.9062 38.4267L51.1195 42.6667H39.9995V48.0001H51.1195L46.9062 52.2401L50.6662 56.0001L61.3328 45.3334L50.6662 34.6667Z" fill="white"/>
</svg>
