<svg width="32" height="32" viewBox="0 0 64 64" fill="none" xmlns="http://www.w3.org/2000/svg">
<path d="M11.7533 35.1467V42.64C11.7533 44.5867 12.82 46.4 14.5267 47.3334L27.86 54.6134C29.46 55.4934 31.38 55.4934 32.98 54.6134L46.3133 47.3334C48.02 46.4 49.0867 44.5867 49.0867 42.64V35.1467L32.98 43.9467C31.38 44.8267 29.46 44.8267 27.86 43.9467L11.7533 35.1467ZM27.86 9.3867L5.38 21.6534C3.54 22.6667 3.54 25.3334 5.38 26.3467L27.86 38.6134C29.46 39.4934 31.38 39.4934 32.98 38.6134L54.42 26.9067V42.6667C54.42 44.1334 55.62 45.3334 57.0867 45.3334C58.5533 45.3334 59.7533 44.1334 59.7533 42.6667V25.5734C59.7533 24.5867 59.22 23.7067 58.3667 23.2267L32.98 9.3867C31.38 8.53337 29.46 8.53337 27.86 9.3867Z" fill="white"/>
</svg>
